<svg width="32" height="32" viewBox="0 0 32 32" fill="none" xmlns="http://www.w3.org/2000/svg">
  <!-- Background square with rounded corners -->
  <rect width="32" height="32" rx="4" fill="#0F766E"/>
  
  <!-- Stylized Q letter with chart -->
  <path d="M16 6C10.477 6 6 10.477 6 16C6 21.523 10.477 26 16 26C18.126 26 20.111 25.297 21.728 24.096L24.243 26.243C24.586 26.586 25.146 26.586 25.489 26.243C25.832 25.9 25.832 25.34 25.489 24.997L22.937 22.814C24.186 21.164 25 19.145 25 17C25 11.477 20.523 7 16 7V6ZM16 24C11.582 24 8 20.418 8 16C8 11.582 11.582 8 16 8C20.418 8 24 11.582 24 16C24 20.418 20.418 24 16 24Z" fill="white"/>
  
  <!-- Upward trending chart line -->
  <path d="M11 18L15 14L19 16L23 12" stroke="white" stroke-width="2" stroke-linecap="round" stroke-linejoin="round"/>
</svg>