<svg width="32" height="32" viewBox="0 0 32 32" fill="none" xmlns="http://www.w3.org/2000/svg">
  <!-- Background square with rounded corners -->
  <rect width="32" height="32" rx="4" fill="#000000"/>
  
  <!-- Gradient overlay for modern feel -->
  <rect width="32" height="32" rx="4" fill="url(#paint0_linear)" fill-opacity="0.9"/>
  
  <!-- QP Monogram -->
  <path d="M11.5 8C9.01472 8 7 10.0147 7 12.5V19C7 21.4853 9.01472 23.5 11.5 23.5C13.9853 23.5 16 21.4853 16 19V16.5H14C13.4477 16.5 13 16.0523 13 15.5C13 14.9477 13.4477 14.5 14 14.5H16V12.5C16 10.0147 13.9853 8 11.5 8ZM11.5 10C12.8807 10 14 11.1193 14 12.5V14.5H13C11.6193 14.5 10.5 15.6193 10.5 17C10.5 18.3807 11.6193 19.5 13 19.5H14V21C13.9999 21.5523 13.5521 22 12.9998 22C12.4475 22 11.9999 21.5523 12 21V19.5H10C9.44772 19.5 9 19.0523 9 18.5C9 17.9477 9.44772 17.5 10 17.5H12V12.5C12 12.2239 11.7761 12 11.5 12C11.2239 12 11 12.2239 11 12.5V15.5C11 16.0523 10.5523 16.5 10 16.5C9.44772 16.5 9 16.0523 9 15.5V12.5C9 11.1193 10.1193 10 11.5 10Z" fill="white"/>
  
  <path d="M25 10.5V20C25 21.3807 23.8807 22.5 22.5 22.5C21.1193 22.5 20 21.3807 20 20V14.5C20 13.9477 19.5523 13.5 19 13.5C18.4477 13.5 18 13.9477 18 14.5V20C18 22.4853 20.0147 24.5 22.5 24.5C24.9853 24.5 27 22.4853 27 20V10.5C27 9.94772 26.5523 9.5 26 9.5C25.4477 9.5 25 9.94772 25 10.5Z" fill="white"/>
  
  <!-- Upward line chart -->
  <polyline points="8,22 12,18 16,20 24,12" stroke="#14B8A6" stroke-width="1.5" stroke-linecap="round" stroke-linejoin="round"/>
  
  <!-- Gradient definition -->
  <defs>
    <linearGradient id="paint0_linear" x1="0" y1="0" x2="32" y2="32" gradientUnits="userSpaceOnUse">
      <stop stop-color="#0F766E"/>
      <stop offset="1" stop-color="#115E59"/>
    </linearGradient>
  </defs>
</svg>