<svg xmlns="http://www.w3.org/2000/svg" width="32" height="32" viewBox="0 0 32 32">
  <!-- Classic black background with rounded corners -->
  <rect width="32" height="32" rx="5" fill="#111111" />
  
  <!-- Classic monogram design with thin lines and premium look -->
  <g fill="none" stroke="#ffffff" stroke-width="1">
    <!-- Outer decorative circle - slightly off-center for artistic touch -->
    <circle cx="16.5" cy="16" r="11" stroke-width="0.75" stroke-opacity="0.6" />
    
    <!-- Inner decorative circle -->
    <circle cx="16.5" cy="16" r="9" stroke-width="0.5" stroke-opacity="0.4" />
  </g>

  <!-- Stylized "Q" letter with refined appearance -->
  <path d="M12.5,10.5 C10.2,10.5 8.5,12.4 8.5,14.8 L8.5,17.2 C8.5,19.6 10.2,21.5 12.5,21.5 C14.8,21.5 16.5,19.6 16.5,17.2 L16.5,14.8 C16.5,12.4 14.8,10.5 12.5,10.5 Z M12.5,12.5 C13.7,12.5 14.5,13.5 14.5,14.8 L14.5,17.2 C14.5,18.5 13.7,19.5 12.5,19.5 C11.3,19.5 10.5,18.5 10.5,17.2 L10.5,14.8 C10.5,13.5 11.3,12.5 12.5,12.5 Z" fill="#ffffff" />
  
  <!-- Small decorative line extending from Q -->
  <path d="M15,19 L17,21" stroke="#ffffff" stroke-width="1" />
  
  <!-- Stylized "P" letter with premium appearance -->
  <path d="M21.5,10.5 C19.2,10.5 17.5,12.4 17.5,14.8 L17.5,21.5 M17.5,14.8 C17.5,12.4 19.2,10.5 21.5,10.5 C23.8,10.5 25.5,12.4 25.5,14.8 C25.5,17.2 23.8,19 21.5,19 L17.5,19" stroke="#ffffff" stroke-width="1.5" fill="none" stroke-linecap="round" stroke-linejoin="round" />
  
  <!-- Subtle gold accent -->
  <path d="M10,23 L14,19 L18,21 L22,17" stroke="#d4af37" stroke-width="0.75" stroke-linecap="round" stroke-linejoin="round" opacity="0.8" />
</svg>