<svg xmlns="http://www.w3.org/2000/svg" width="32" height="32" viewBox="0 0 32 32">
  <!-- Subtle gradient background -->
  <defs>
    <linearGradient id="elegant-bg" x1="0%" y1="0%" x2="100%" y2="100%">
      <stop offset="0%" stop-color="#1e293b" />
      <stop offset="100%" stop-color="#0f172a" />
    </linearGradient>
  </defs>
  
  <!-- Rounded square background -->
  <rect width="32" height="32" rx="6" fill="url(#elegant-bg)" />
  
  <!-- Elegant Q lettermark -->
  <path d="M16,7 C11.0294,7 7,11.0294 7,16 C7,20.9706 11.0294,25 16,25 C17.9,25 19.6,24.3 21,23.2 L23.3,25.5 C23.5,25.7 23.8,25.7 24,25.5 C24.2,25.3 24.2,25 24,24.8 L21.6,22.4 C22.7,21 23.5,18.8 23.5,16.5 C23.5,11.5 19.5,7.5 16,7.5 L16,7 Z M16,23 C12.1,23 9,19.9 9,16 C9,12.1 12.1,9 16,9 C19.9,9 23,12.1 23,16 C23,19.9 19.9,23 16,23 Z" fill="#e2e8f0" />
  
  <!-- Elegant P lettermark -->
  <path d="M25,10 L25,22 M18,10 L18,22 M18,10 C18,10 22,10 22,13 C22,16 18,16 18,16" stroke="#e2e8f0" stroke-width="1.5" fill="none" stroke-linecap="round" stroke-linejoin="round" />
  
  <!-- Subtle gold accent line -->
  <path d="M10,20 L14,16 L18,18 L22,14" stroke="#d4af37" stroke-width="1" stroke-linecap="round" stroke-linejoin="round" opacity="0.8" />
  
  <!-- Small gold dot accent -->
  <circle cx="22" cy="14" r="1" fill="#d4af37" />
</svg>