<svg width="32" height="32" viewBox="0 0 32 32" fill="none" xmlns="http://www.w3.org/2000/svg">
  <!-- Clean white background with rounded corners -->
  <rect width="32" height="32" rx="4" fill="white"/>
  
  <!-- Stylized Q representing Quant -->
  <path d="M16 6C10.477 6 6 10.477 6 16C6 21.523 10.477 26 16 26C18.2 26 20.2 25.3 21.9 24L24 26.1C24.3 26.4 24.7 26.4 25 26.1C25.3 25.8 25.3 25.4 25 25.1L22.9 23C24.2 21.2 25 19 25 16.5C25 11 20.5 6.5 16 6.5V6ZM16 24C11.6 24 8 20.4 8 16C8 11.6 11.6 8 16 8C20.4 8 24 11.6 24 16C24 20.4 20.4 24 16 24Z" fill="#0F766E"/>
  
  <!-- Chart line that forms a P shape -->
  <path d="M16 11C18.2 11 20 12.8 20 15C20 17.2 18.2 19 16 19H12V24" stroke="#14B8A6" stroke-width="2" stroke-linecap="round" stroke-linejoin="round"/>
  <path d="M12 11V19" stroke="#14B8A6" stroke-width="2" stroke-linecap="round" stroke-linejoin="round"/>

  <!-- Subtle upward trending line in negative space -->
  <path d="M10 19L14 15L18 17L22 13" stroke="#0F766E" stroke-width="1" stroke-linecap="round" stroke-linejoin="round" stroke-dasharray="1 2"/>
</svg>